<svg width="220.000000" height="190.616455" viewBox="0 0 220 190.616" fill="none" xmlns="http://www.w3.org/2000/svg" xmlns:xlink="http://www.w3.org/1999/xlink">
	<desc>
			Created with Pixso.
	</desc>
	<defs/>
	<mask id="mask_155_2" fill="white">
		<path id="лого1" d="M68.5616 64.7945L81.3699 51.2328L94.9315 64.7945L108.493 51.2328L122.055 64.7945L135.616 51.2328L149.178 64.7945L162.74 51.2328L176.301 64.7945L189.863 51.2328L203.425 64.7945L203.425 51.2328C203.425 44.2009 200.712 29.6849 189.863 27.8767L91.9178 27.8767L91.9178 0C79.863 0 59.3699 14.6164 58.7671 27.8767L58.7671 0C41.1872 5.52509 4.8219 26.2191 0 64.7945L0 174.041C3.61646 186.096 14.5662 190.114 19.5891 190.616L176.301 190.616C180.822 187.854 189.863 180.671 189.863 174.041L189.863 161.233L176.301 174.795L162.74 161.233L149.932 174.041L137.123 161.233L124.315 174.041L111.507 161.233L98.6986 174.041L83.6301 158.973L66.3014 171.781C54.4977 156.963 32.3973 109.247 68.5616 64.7945ZM46.7123 31.6439C43.7996 31.6439 41.4384 34.0051 41.4384 36.9178C41.4384 39.8306 43.7996 42.1918 46.7123 42.1918C49.6251 42.1918 51.9863 39.8306 51.9863 36.9178C51.9863 34.0051 49.6251 31.6439 46.7123 31.6439ZM68.5616 36.9178C68.5616 34.0051 70.9229 31.6439 73.8356 31.6439C76.7484 31.6439 79.1096 34.0051 79.1096 36.9178C79.1096 39.8306 76.7484 42.1918 73.8356 42.1918C70.9229 42.1918 68.5616 39.8306 68.5616 36.9178Z" clip-rule="evenodd" fill="" fill-opacity="1.000000" fill-rule="evenodd"/>
	</mask>
	<path id="лого1" d="M68.5616 64.7945L81.3699 51.2328L94.9315 64.7945L108.493 51.2328L122.055 64.7945L135.616 51.2328L149.178 64.7945L162.74 51.2328L176.301 64.7945L189.863 51.2328L203.425 64.7945L203.425 51.2328C203.425 44.2009 200.712 29.6849 189.863 27.8767L91.9178 27.8767L91.9178 0C79.863 0 59.3699 14.6164 58.7671 27.8767L58.7671 0C41.1872 5.52509 4.8219 26.2191 0 64.7945L0 174.041C3.61646 186.096 14.5662 190.114 19.5891 190.616L176.301 190.616C180.822 187.854 189.863 180.671 189.863 174.041L189.863 161.233L176.301 174.795L162.74 161.233L149.932 174.041L137.123 161.233L124.315 174.041L111.507 161.233L98.6986 174.041L83.6301 158.973L66.3014 171.781C54.4977 156.963 32.3973 109.247 68.5616 64.7945ZM46.7123 31.6439C43.7996 31.6439 41.4384 34.0051 41.4384 36.9178C41.4384 39.8306 43.7996 42.1918 46.7123 42.1918C49.6251 42.1918 51.9863 39.8306 51.9863 36.9178C51.9863 34.0051 49.6251 31.6439 46.7123 31.6439ZM68.5616 36.9178C68.5616 34.0051 70.9229 31.6439 73.8356 31.6439C76.7484 31.6439 79.1096 34.0051 79.1096 36.9178C79.1096 39.8306 76.7484 42.1918 73.8356 42.1918C70.9229 42.1918 68.5616 39.8306 68.5616 36.9178Z" clip-rule="evenodd" fill="#000000" fill-opacity="1.000000" fill-rule="evenodd" mask="url(#mask_155_2)"/>
	<path id="лого1" d="" fill="#000000" fill-opacity="1.000000" fill-rule="nonzero"/>
	<path id="Tattoo Cheb" d="M94.74 74.63Q93.42 73.85 92.02 73.25Q88.2 71.61 83.81 71.3L83.81 102.18L80.27 102.18L80.27 71.3Q77.14 71.5 74.25 72.42Q71.68 73.24 69.29 74.63L68 71.83Q69.63 70.85 71.38 70.13L71.38 70.13Q76.27 68.11 81.99 68.11Q88.54 68.11 93.87 70.66L93.87 70.66Q94.98 71.19 96.04 71.83L94.74 74.63ZM142.97 100.64C142.33 101.22 141.55 101.67 140.62 101.99C139.7 102.28 138.72 102.43 137.7 102.43C135.33 102.43 133.51 101.78 132.23 100.5C130.96 99.21 130.32 97.39 130.32 95.04L130.32 71.25L133.72 71.25L133.72 76.8L141.34 76.8L141.34 79.69L133.72 79.69L133.72 94.85C133.72 96.36 134.09 97.52 134.82 98.32C135.56 99.1 136.63 99.48 138.03 99.48C139.57 99.48 140.82 99.05 141.77 98.18L142.97 100.64ZM161.56 100.64C160.92 101.22 160.13 101.67 159.21 101.99C158.28 102.28 157.31 102.43 156.28 102.43C153.92 102.43 152.1 101.78 150.82 100.5C149.54 99.21 148.9 97.39 148.9 95.04L148.9 71.25L152.31 71.25L152.31 76.8L159.93 76.8L159.93 79.69L152.31 79.69L152.31 94.85C152.31 96.36 152.67 97.52 153.41 98.32C154.14 99.1 155.21 99.48 156.62 99.48C158.15 99.48 159.4 99.05 160.36 98.18L161.56 100.64ZM121.08 76.8L121.08 102.18L117.82 102.18L117.82 97.17C116.8 98.87 115.44 100.17 113.74 101.07C112.08 101.98 110.2 102.43 108.09 102.43C105.72 102.43 103.58 101.88 101.66 100.79Q100.38 100.06 99.35 99.07L99.35 99.07Q98.06 97.83 97.16 96.2Q97.04 95.99 96.93 95.77Q95.53 92.98 95.53 89.49Q95.53 86 96.93 83.21Q97.04 83 97.16 82.78C98.24 80.82 99.75 79.31 101.66 78.25C103.58 77.15 105.72 76.61 108.09 76.61Q110.9 76.61 113.19 77.7L113.19 77.7Q113.4 77.8 113.6 77.91C115.26 78.75 116.62 79.98 117.67 81.62L117.67 76.8L121.08 76.8ZM177.14 102.43C174.71 102.43 172.53 101.88 170.58 100.79C168.63 99.66 167.09 98.11 165.97 96.15C164.86 94.19 164.3 91.97 164.3 89.49C164.3 87.01 164.86 84.79 165.97 82.83C167.09 80.87 168.63 79.34 170.58 78.25C172.53 77.15 174.71 76.61 177.14 76.61C179.57 76.61 181.76 77.15 183.71 78.25C185.66 79.34 187.18 80.87 188.26 82.83C189.38 84.79 189.94 87.01 189.94 89.49C189.94 91.97 189.38 94.19 188.26 96.15C187.18 98.11 185.66 99.66 183.71 100.79C181.76 101.88 179.57 102.43 177.14 102.43ZM207.2 102.43C204.77 102.43 202.58 101.88 200.63 100.79C198.68 99.66 197.15 98.11 196.03 96.15C194.91 94.19 194.35 91.97 194.35 89.49C194.35 87.01 194.91 84.79 196.03 82.83C197.15 80.87 198.68 79.34 200.63 78.25C202.58 77.15 204.77 76.61 207.2 76.61C209.63 76.61 211.81 77.15 213.76 78.25C215.71 79.34 217.23 80.87 218.32 82.83C219.44 84.79 220 87.01 220 89.49C220 91.97 219.44 94.19 218.32 96.15C217.23 98.11 215.71 99.66 213.76 100.79C211.81 101.88 209.63 102.43 207.2 102.43ZM108.38 99.39C110.13 99.39 111.71 98.98 113.12 98.18C114.56 97.34 115.68 96.17 116.48 94.66C117.31 93.14 117.72 91.42 117.72 89.49C117.72 87.56 117.31 85.84 116.48 84.33C115.68 82.82 114.56 81.66 113.12 80.85C111.71 80.02 110.13 79.6 108.38 79.6Q106.32 79.6 104.58 80.33Q104.04 80.56 103.53 80.85Q102.93 81.2 102.39 81.64L102.39 81.64Q101.07 82.71 100.18 84.33Q100.17 84.34 100.16 84.36Q98.98 86.62 98.98 89.49Q98.98 92.37 100.16 94.62Q100.17 94.64 100.18 94.66C101.01 96.17 102.13 97.34 103.53 98.18C104.97 98.98 106.59 99.39 108.38 99.39ZM177.14 99.39C178.93 99.39 180.53 98.98 181.94 98.18C183.37 97.34 184.49 96.17 185.29 94.66C186.09 93.14 186.49 91.42 186.49 89.49C186.49 87.56 186.09 85.84 185.29 84.33C184.49 82.82 183.37 81.66 181.94 80.85C180.53 80.02 178.93 79.6 177.14 79.6C175.35 79.6 173.74 80.02 172.3 80.85Q171.69 81.2 171.16 81.64Q169.83 82.71 168.95 84.33C168.15 85.84 167.75 87.56 167.75 89.49C167.75 91.42 168.15 93.14 168.95 94.66C169.78 96.17 170.9 97.34 172.3 98.18C173.74 98.98 175.35 99.39 177.14 99.39ZM207.2 99.39C208.99 99.39 210.58 98.98 211.99 98.18C213.43 97.34 214.55 96.17 215.35 94.66C216.14 93.14 216.54 91.42 216.54 89.49C216.54 87.56 216.14 85.84 215.35 84.33C214.55 82.82 213.43 81.66 211.99 80.85Q211.59 80.61 211.17 80.42Q209.37 79.6 207.2 79.6C205.41 79.6 203.79 80.02 202.36 80.85C200.95 81.66 199.83 82.82 199 84.33C198.2 85.84 197.8 87.56 197.8 89.49C197.8 91.42 198.2 93.14 199 94.66C199.83 96.17 200.95 97.34 202.36 98.18C203.79 98.98 205.41 99.39 207.2 99.39ZM120.18 126.24C123.35 126.24 125.85 127.18 127.71 129.04C129.59 130.88 130.53 133.56 130.53 137.1L130.53 151.82L127.13 151.82L127.13 137.44C127.13 134.8 126.48 132.79 125.17 131.41C123.86 130.02 121.99 129.33 119.56 129.33C116.84 129.33 114.69 130.15 113.09 131.79C111.52 133.4 110.74 135.64 110.74 138.5L110.74 151.82L107.33 151.82L107.33 116.01L110.74 116.01L110.74 130.88C111.67 129.4 112.94 128.25 114.57 127.45C116.2 126.65 118.07 126.24 120.18 126.24ZM181.79 126.24C184.16 126.24 186.3 126.79 188.21 127.88C190.13 128.95 191.63 130.46 192.72 132.42C193.81 134.38 194.35 136.62 194.35 139.13C194.35 141.64 193.81 143.88 192.72 145.84C191.63 147.8 190.13 149.33 188.21 150.42C186.3 151.52 184.16 152.06 181.79 152.06C179.68 152.06 177.78 151.61 176.09 150.71C174.42 149.81 173.08 148.51 172.06 146.8L172.06 151.82L168.8 151.82L168.8 116.01L172.2 116.01L172.2 131.26C173.26 129.62 174.6 128.38 176.23 127.55C177.89 126.68 179.75 126.24 181.79 126.24ZM88.17 152.11C84.85 152.11 81.84 151.37 79.16 149.89C76.51 148.41 74.41 146.37 72.88 143.76C71.38 141.12 70.63 138.18 70.63 134.93C70.63 131.68 71.38 128.75 72.88 126.15C74.41 123.51 76.52 121.45 79.21 119.97C81.89 118.49 84.9 117.75 88.22 117.75C90.71 117.75 93.01 118.17 95.12 119C97.23 119.84 99.02 121.06 100.49 122.67L98.24 124.94C95.62 122.27 92.31 120.93 88.32 120.93C85.66 120.93 83.25 121.55 81.08 122.77C78.9 123.99 77.19 125.66 75.95 127.79C74.73 129.91 74.13 132.29 74.13 134.93C74.13 137.57 74.73 139.95 75.95 142.07C77.19 144.2 78.9 145.87 81.08 147.09C83.25 148.32 85.66 148.93 88.32 148.93C92.34 148.93 95.65 147.58 98.24 144.87L100.49 147.14Q100.04 147.63 99.55 148.08L99.55 148.08Q97.63 149.82 95.07 150.86C92.97 151.69 90.66 152.11 88.17 152.11ZM150.66 149.02C152.22 149.02 153.66 148.75 154.97 148.2C156.31 147.62 157.45 146.79 158.37 145.69L160.29 147.91C159.17 149.26 157.78 150.29 156.12 151C154.46 151.71 152.62 152.06 150.61 152.06C148.02 152.06 145.72 151.52 143.7 150.42C141.69 149.3 140.13 147.75 139.01 145.79C137.89 143.83 137.33 141.61 137.33 139.13C137.33 136.65 137.86 134.43 138.91 132.47C140 130.51 141.48 128.98 143.37 127.88C145.25 126.79 147.39 126.24 149.79 126.24C152.03 126.24 154.04 126.76 155.83 127.79C157.65 128.82 159.09 130.25 160.15 132.08C161.23 133.92 161.81 136.01 161.87 138.36L141.16 142.41C141.8 144.47 142.95 146.1 144.62 147.28C146.31 148.44 148.32 149.02 150.66 149.02ZM149.79 129.19C148.03 129.19 146.45 129.61 145.05 130.44C143.67 131.25 142.59 132.39 141.79 133.87C141.02 135.32 140.64 136.99 140.64 138.89C140.64 139.37 140.65 139.72 140.68 139.95L158.47 136.48C158.09 134.35 157.11 132.61 155.54 131.26C153.98 129.88 152.06 129.19 149.79 129.19ZM181.55 149.02C183.31 149.02 184.91 148.62 186.34 147.82C187.78 146.98 188.9 145.81 189.7 144.29C190.53 142.78 190.95 141.06 190.95 139.13C190.95 137.2 190.53 135.48 189.7 133.97C188.9 132.45 187.78 131.29 186.34 130.49C184.91 129.65 183.31 129.24 181.55 129.24C179.76 129.24 178.15 129.65 176.71 130.49C175.3 131.29 174.18 132.45 173.35 133.97C172.55 135.48 172.16 137.2 172.16 139.13C172.16 141.06 172.55 142.78 173.35 144.29C174.18 145.81 175.3 146.98 176.71 147.82C178.15 148.62 179.76 149.02 181.55 149.02Z" fill="#000000" fill-opacity="1.000000" fill-rule="evenodd"/>
</svg>
