<svg width="332.974609" height="202.875000" viewBox="0 0 332.975 202.875" fill="none" xmlns="http://www.w3.org/2000/svg" xmlns:xlink="http://www.w3.org/1999/xlink">
	<desc>
			Created with Pixso.
	</desc>
	<defs/>
	<path id="tattoo cheb company" d="M214.84 22.66Q215.3 29.62 220.5 36.28Q225.17 37.87 229.33 37.87Q235.17 37.87 239.98 35.63Q243.17 34.14 245.9 31.67Q250.35 27.63 251.91 22.68Q252.75 20.01 252.75 17.07Q252.75 15.4 252.46 13.78Q251.59 8.95 248.14 4.59Q243.57 3.2 238.96 3.02Q238.27 3 237.58 3Q228.88 3 222.9 7.02Q222.01 7.62 221.18 8.31Q217.3 11.53 215.78 15.63Q214.79 18.29 214.79 21.31Q214.79 21.98 214.84 22.66ZM256.95 22.66Q257.41 29.62 262.61 36.28Q267.28 37.87 271.44 37.87Q277.29 37.87 282.09 35.63Q285.28 34.14 288.01 31.67Q292.46 27.63 294.02 22.68Q294.86 20.01 294.86 17.07Q294.86 15.4 294.57 13.78Q293.7 8.95 290.25 4.59Q285.68 3.2 281.07 3.02Q280.38 3 279.69 3Q270.99 3 265.01 7.02Q264.12 7.62 263.3 8.31Q259.42 11.53 257.89 15.63Q256.91 18.29 256.91 21.31Q256.91 21.98 256.95 22.66ZM60.43 25.14Q60.43 18.73 62.09 8.62Q64.59 8.62 66.12 9.84L66.12 9.84Q66.44 10.09 66.69 10.4Q67.67 11.57 67.67 13.56Q67.67 14.57 67.4 15.6L73.87 15.98Q75.53 11.51 76.81 4.46L34.26 4.46L31.95 15.6L38.29 15.98Q38.93 12.93 40.77 11.04Q42.39 9.37 44.95 8.62Q44.81 12.59 44.81 14.57Q44.81 26.29 46.99 36.46L60.95 36.46Q60.43 31.54 60.43 25.14ZM121.16 36.46L121.16 35.95Q121.16 18.23 114.83 4.46L93.58 4.46Q95.51 6.7 97.22 9.39Q95.3 13.1 91.05 16.31Q86.8 19.51 82.19 20.85Q80.91 25.2 80.91 29.53Q80.91 33.84 81.36 36.46L96.27 36.46Q101.26 32.95 105.22 28.92Q106.07 32.82 106.32 36.46L121.16 36.46ZM150.93 25.14Q150.93 18.73 152.59 8.62Q155.08 8.62 156.61 9.84L156.62 9.84Q156.94 10.09 157.19 10.4Q158.16 11.57 158.16 13.56Q158.16 14.57 157.9 15.6L164.37 15.98Q166.02 11.51 167.3 4.46L124.76 4.46L122.44 15.6L128.79 15.98Q129.43 12.93 131.26 11.04Q132.89 9.37 135.44 8.62Q135.3 12.59 135.3 14.57Q135.3 26.29 137.49 36.46L151.44 36.46Q150.93 31.54 150.93 25.14ZM196.05 25.14Q196.05 18.73 197.71 8.62Q200.2 8.62 201.73 9.84L201.74 9.84Q202.06 10.09 202.31 10.4Q203.28 11.57 203.28 13.56Q203.28 14.57 203.02 15.6L209.49 15.98Q211.14 11.51 212.42 4.46L169.88 4.46L167.56 15.6L173.91 15.98Q174.55 12.93 176.38 11.04Q178.01 9.37 180.56 8.62Q180.42 12.59 180.42 14.57Q180.42 26.29 182.61 36.46L196.56 36.46Q196.05 31.54 196.05 25.14ZM227.98 17.59Q227.98 12.4 230.22 8.56Q232.14 9.55 233.69 10.95Q235.66 12.73 237.03 15.17Q238.14 17.12 238.75 19.22Q239.5 21.79 239.5 24.57Q239.5 27.53 238.46 30.07Q237.74 31.87 236.5 33.45Q235.63 33.03 234.85 32.5Q232.03 30.59 230.25 27.15Q229.58 25.85 229.1 24.48Q227.98 21.23 227.98 17.59ZM270.09 17.59Q270.09 12.4 272.33 8.56Q274.25 9.55 275.8 10.95Q277.77 12.73 279.14 15.17Q280.25 17.12 280.86 19.22Q281.61 21.79 281.61 24.57Q281.61 27.53 280.58 30.07Q279.85 31.87 278.61 33.45Q277.75 33.03 276.96 32.5Q274.14 30.59 272.36 27.15Q271.69 25.85 271.21 24.48Q270.09 21.23 270.09 17.59ZM99.72 13.5Q102.41 18.54 104.08 24.25Q100.88 27.82 96.27 30.2Q96.72 22.32 99.72 13.5ZM101.17 76.98Q103.25 76.98 105.48 77.37Q105.03 79.81 104.39 81.59Q108.69 81.59 112.72 81.21Q114.25 77.62 115.28 73.59Q108.44 72 102.16 72Q90.95 72 85.06 77.03Q81.51 80.06 80.1 83.89Q79.19 86.38 79.19 89.21Q79.19 90.55 79.39 91.86Q80.01 95.8 82.48 99.45Q83.45 100.87 84.61 102.08Q87.46 105.04 91.53 106.81L93 106.81Q100.36 106.81 105.28 104.7Q110.22 102.59 114.95 98.87Q114.83 93.62 114.64 91.06Q109.91 96.89 104.02 100.79Q99.26 97.93 97.06 93.73Q95.19 90.13 95.19 85.56Q95.19 81.71 96.14 77.68Q99.09 76.98 101.17 76.98ZM159.49 105.46Q161.93 91.32 161.93 78.78Q161.93 77.04 161.81 73.46L145.17 73.46Q145.62 78.45 145.62 84.4Q141.96 82.42 138.26 81.28Q138.26 76.09 138.12 73.46L121.23 73.46Q122.39 81.71 122.39 90.46Q122.39 99.2 121.56 105.46L136.07 105.46Q137.64 96.68 138.07 87.85Q138.1 87.28 138.12 86.71Q141.37 87.07 144.12 88.42Q144.86 88.78 145.56 89.21Q145.23 97.92 144.21 105.46L159.49 105.46ZM197.14 86.71L191.12 86.32Q188.68 86.32 186.74 87.32Q185.68 87.86 184.78 88.7Q185.54 84.09 186.96 78.01Q189.07 77.62 190.79 77.62Q193.98 77.62 194.96 79.09Q195.4 79.75 195.4 80.7Q195.4 81.98 194.9 83.45Q198.03 83.39 201.81 83.2Q202.7 80.37 203.85 73.46L169.54 73.46Q168.65 79.81 168.65 88.32Q168.65 96.82 169.93 105.46L201.35 105.46Q202.96 101.5 203.92 96L196.25 95.67Q195.53 98.81 193.9 100.03Q192.28 101.25 189.51 101.25L188.95 101.25Q187.03 101.25 183.7 100.6Q183.82 97.46 184.07 94.32Q185.27 91.69 187.13 91.1Q187.66 90.93 188.25 90.93Q189.2 90.93 191.43 91.6Q193.68 92.28 194.9 92.28L195.46 92.28L198.48 86.65Q198.03 86.71 197.14 86.71ZM213.21 73.46Q211.99 79.54 211.99 86.26Q211.99 96.57 214.55 105.46L246.74 105.46Q248.74 100.13 249.39 94.64Q249.44 94.2 249.49 93.75Q245.06 89.07 237.71 86.45Q241.28 84.68 243.84 81.95Q247.1 78.48 248.72 73.46L213.21 73.46ZM230.52 85.21Q229.87 85.44 229.21 85.62Q229.77 81.71 230.55 78.01Q233.74 77.68 238.86 77.68Q238.46 78.74 237.86 79.68Q236.76 81.42 235.02 82.75Q232.9 84.36 230.52 85.21ZM235.22 100.6Q232.46 101.31 228.11 101.31Q228.11 95.73 228.69 90.04Q230.42 91.16 231.72 92.65Q234.44 95.79 235.22 100.6ZM322.74 144.2Q324.2 144.2 326.38 143.68Q328.24 140.87 329.97 136.9Q328.5 137.85 325.17 138.21Q321.85 138.56 320.75 138.89Q319.65 139.28 318.67 139.88Q316.3 141.33 314.67 144Q313.39 146.1 312.52 147.81Q311.66 149.51 310.6 152.9Q309.55 156.29 309.03 158.15Q308.53 160 307.44 164.32Q306.35 168.64 305.91 170.37Q303.72 161.79 303.72 155.1Q303.72 148.42 305.06 142.46L286.38 142.46Q286.58 158.07 291.63 174.46L304.88 174.46Q300.91 188.93 294.52 199.87Q299.25 198.98 302.44 198.01Q307.31 188.29 312.17 165.12Q313.13 160.57 313.92 157.45Q314.74 154.31 316.33 150.34Q317.94 146.37 319.92 144Q321.27 144.2 322.74 144.2ZM24.98 145.98Q27.06 145.98 29.29 146.37Q28.84 148.81 28.2 150.59Q32.5 150.59 36.53 150.21Q38.06 146.62 39.09 142.59Q32.25 141 25.96 141Q14.76 141 8.87 146.03Q5.31 149.06 3.91 152.89Q2.99 155.38 2.99 158.21Q2.99 159.55 3.2 160.86Q3.82 164.8 6.29 168.45Q7.25 169.87 8.42 171.08Q11.27 174.04 15.34 175.81L16.81 175.81Q24.17 175.81 29.09 173.7Q34.03 171.59 38.76 167.87Q38.64 162.62 38.45 160.06Q33.71 165.89 27.82 169.79Q23.07 166.93 20.87 162.73Q19 159.13 19 154.56Q19 150.71 19.95 146.68Q22.9 145.98 24.98 145.98ZM43.22 160.66Q43.68 167.62 48.88 174.28Q53.55 175.87 57.71 175.87Q63.56 175.87 68.36 173.63Q71.55 172.14 74.29 169.67Q78.73 165.63 80.29 160.68Q81.13 158.01 81.13 155.07Q81.13 153.4 80.84 151.78Q79.97 146.95 76.52 142.59Q71.96 141.2 67.34 141.02Q66.65 141 65.96 141Q57.26 141 51.28 145.02Q50.4 145.62 49.57 146.31Q45.69 149.53 44.16 153.64Q43.18 156.29 43.18 159.31Q43.18 159.98 43.22 160.66ZM124.65 142.46Q125.16 143.68 125.16 145.4Q125.16 150.85 121.96 156.81Q120.74 149.06 118.32 142.46L98.09 142.46Q99.95 144.96 101.62 147.71Q99.63 151.35 95.43 154.43Q91.24 157.51 86.7 158.85Q85.41 163.2 85.41 167.53Q85.41 171.84 85.87 174.46L101.41 174.46Q100.52 171.07 100.52 167.29Q100.52 160.32 103.98 152.2Q108.71 161.92 110.38 174.46L122.93 174.46Q122.98 173.24 123.09 172.02Q123.97 161.96 128.95 152.26Q129.23 153.17 129.49 154.09Q132.31 163.93 132.71 174.46L147.51 174.46Q147.43 166.4 146.31 157.51Q145.2 148.6 142.9 142.46L124.65 142.46ZM169.59 174.46Q169.26 170.1 169.26 166.46L169.26 165.18Q180.85 163.9 190.32 159.68Q190.13 149.7 188.27 142.46L153.59 142.46Q152.88 147.01 152.88 152.84Q152.88 164.29 155.51 174.46L169.59 174.46ZM237.16 174.46L237.16 173.95Q237.16 156.23 230.83 142.46L209.58 142.46Q211.51 144.7 213.22 147.39Q211.3 151.1 207.05 154.31Q202.8 157.51 198.19 158.85Q196.91 163.2 196.91 167.53Q196.91 171.84 197.37 174.46L212.27 174.46Q217.26 170.95 221.22 166.92Q222.07 170.82 222.32 174.46L237.16 174.46ZM280.12 156.64Q280.12 149.18 279.73 142.46L272.12 142.46Q274.23 150.28 274.23 159.62Q269.99 156.87 265.35 151.98Q260.73 147.07 258.02 142.46L239.85 142.46Q241.32 145.48 243.88 149.31Q244.52 153.21 244.52 159.9Q244.52 166.59 243.24 174.46L250.74 174.46Q251.05 169.67 251.05 165.15Q251.05 160.64 250.54 156.35Q260.91 167.81 273.32 174.46L279.48 174.46Q280.12 164.09 280.12 156.64ZM56.36 155.59Q56.36 150.4 58.6 146.56Q60.52 147.55 62.07 148.95Q64.04 150.73 65.41 153.17Q66.52 155.12 67.13 157.22Q67.88 159.79 67.88 162.57Q67.88 165.53 66.85 168.08Q66.12 169.87 64.88 171.45Q64.02 171.03 63.23 170.5Q60.42 168.59 58.63 165.15Q57.96 163.85 57.49 162.48Q56.36 159.23 56.36 155.59ZM176.18 158.71Q173.41 160.26 169.32 160.76Q169.65 153.03 170.66 146.68Q173 149.42 174.4 152.58Q175.69 155.47 176.18 158.71ZM215.72 151.5Q218.41 156.54 220.08 162.25Q216.88 165.82 212.27 168.2Q212.72 160.32 215.72 151.5Z" fill="#FFFFFF" fill-opacity="1.000000" fill-rule="evenodd"/>
	<path id="tattoo cheb company" d="M62.09 8.62Q60.43 18.73 60.43 25.14Q60.43 31.54 60.95 36.46L46.99 36.46Q44.81 26.29 44.81 14.57Q44.81 12.59 44.95 8.62Q39.49 10.23 38.29 15.98L31.95 15.6L34.26 4.46L76.81 4.46Q75.53 11.51 73.87 15.98L67.4 15.6Q67.67 14.57 67.67 13.56Q67.67 11.06 66.12 9.84Q64.59 8.62 62.09 8.62ZM121.16 35.95L121.16 36.46L106.32 36.46Q106.07 32.82 105.22 28.92Q101.26 32.95 96.27 36.46L81.36 36.46Q80.91 33.84 80.91 29.53Q80.91 25.2 82.19 20.85Q86.8 19.51 91.05 16.31Q95.3 13.1 97.22 9.39Q95.51 6.7 93.58 4.46L114.83 4.46Q121.16 18.23 121.16 35.95ZM104.08 24.25Q102.41 18.54 99.72 13.5Q96.72 22.32 96.27 30.2Q100.88 27.82 104.08 24.25ZM152.59 8.62Q150.93 18.73 150.93 25.14Q150.93 31.54 151.44 36.46L137.49 36.46Q135.3 26.29 135.3 14.57Q135.3 12.59 135.44 8.62Q129.99 10.23 128.79 15.98L122.44 15.6L124.76 4.46L167.3 4.46Q166.02 11.51 164.37 15.98L157.9 15.6Q158.16 14.57 158.16 13.56Q158.16 11.06 156.62 9.84Q155.09 8.62 152.59 8.62ZM197.71 8.62Q196.05 18.73 196.05 25.14Q196.05 31.54 196.56 36.46L182.61 36.46Q180.42 26.29 180.42 14.57Q180.42 12.59 180.56 8.62Q175.11 10.23 173.91 15.98L167.56 15.6L169.88 4.46L212.42 4.46Q211.14 11.51 209.49 15.98L203.02 15.6Q203.28 14.57 203.28 13.56Q203.28 11.06 201.74 9.84Q200.21 8.62 197.71 8.62ZM220.5 36.28Q214.79 28.98 214.79 21.31Q214.79 13.62 221.18 8.31Q227.59 3 237.58 3Q242.89 3 248.14 4.59Q252.75 10.42 252.75 17.07Q252.75 25.45 245.9 31.67Q239.06 37.87 229.33 37.87Q225.17 37.87 220.5 36.28ZM230.22 8.56Q227.98 12.4 227.98 17.59Q227.98 22.76 230.25 27.15Q232.53 31.54 236.5 33.45Q239.5 29.62 239.5 24.57Q239.5 19.51 237.03 15.17Q234.58 10.81 230.22 8.56ZM262.61 36.28Q256.91 28.98 256.91 21.31Q256.91 13.62 263.3 8.31Q269.7 3 279.69 3Q285 3 290.25 4.59Q294.86 10.42 294.86 17.07Q294.86 25.45 288.01 31.67Q281.17 37.87 271.44 37.87Q267.28 37.87 262.61 36.28ZM272.33 8.56Q270.09 12.4 270.09 17.59Q270.09 22.76 272.36 27.15Q274.64 31.54 278.61 33.45Q281.61 29.62 281.61 24.57Q281.61 19.51 279.14 15.17Q276.69 10.81 272.33 8.56ZM105.48 77.37Q103.25 76.98 101.17 76.98Q99.09 76.98 96.14 77.68Q95.19 81.71 95.19 85.56Q95.19 95.48 104.02 100.79Q109.91 96.89 114.64 91.06Q114.83 93.62 114.95 98.87Q110.22 102.59 105.28 104.7Q100.36 106.81 93 106.81L91.53 106.81Q85.78 104.31 82.48 99.45Q79.19 94.59 79.19 89.21Q79.19 82.04 85.06 77.03Q90.95 72 102.16 72Q108.44 72 115.28 73.59Q114.25 77.62 112.72 81.21Q108.69 81.59 104.39 81.59Q105.03 79.81 105.48 77.37ZM161.93 78.78Q161.93 91.32 159.49 105.46L144.21 105.46Q145.23 97.92 145.56 89.21Q142.23 87.17 138.12 86.71Q137.74 96.12 136.07 105.46L121.56 105.46Q122.39 99.2 122.39 90.46Q122.39 81.71 121.23 73.46L138.12 73.46Q138.26 76.09 138.26 81.28Q141.96 82.42 145.62 84.4Q145.62 78.45 145.17 73.46L161.81 73.46Q161.93 77.04 161.93 78.78ZM191.12 86.32L197.14 86.71Q198.03 86.71 198.48 86.65L195.46 92.28L194.9 92.28Q193.68 92.28 191.43 91.6Q189.2 90.93 188.25 90.93Q185.62 90.93 184.07 94.32Q183.82 97.46 183.7 100.6Q187.03 101.25 188.95 101.25L189.51 101.25Q192.28 101.25 193.9 100.03Q195.53 98.81 196.25 95.67L203.92 96Q202.96 101.5 201.35 105.46L169.93 105.46Q168.65 96.82 168.65 88.32Q168.65 79.81 169.54 73.46L203.85 73.46Q202.7 80.37 201.81 83.2Q198.03 83.39 194.9 83.45Q195.4 81.98 195.4 80.7Q195.4 77.62 190.79 77.62Q189.07 77.62 186.96 78.01Q185.54 84.09 184.78 88.7Q187.34 86.32 191.12 86.32ZM228.11 101.31Q232.46 101.31 235.22 100.6Q234.06 93.5 228.69 90.04Q228.11 95.73 228.11 101.31ZM211.99 86.26Q211.99 79.54 213.21 73.46L248.72 73.46Q245.83 82.42 237.71 86.45Q245.06 89.07 249.49 93.75Q248.91 99.7 246.74 105.46L214.55 105.46Q211.99 96.57 211.99 86.26ZM229.21 85.62Q232.33 84.79 235.02 82.75Q237.71 80.7 238.86 77.68Q233.74 77.68 230.55 78.01Q229.77 81.71 229.21 85.62ZM29.29 146.37Q27.06 145.98 24.98 145.98Q22.9 145.98 19.95 146.68Q19 150.71 19 154.56Q19 164.48 27.82 169.79Q33.71 165.89 38.45 160.06Q38.64 162.62 38.76 167.87Q34.03 171.59 29.09 173.7Q24.17 175.81 16.81 175.81L15.34 175.81Q9.59 173.31 6.29 168.45Q2.99 163.59 2.99 158.21Q2.99 151.04 8.87 146.03Q14.76 141 25.96 141Q32.25 141 39.09 142.59Q38.06 146.62 36.53 150.21Q32.5 150.59 28.2 150.59Q28.84 148.81 29.29 146.37ZM48.88 174.28Q43.18 166.98 43.18 159.31Q43.18 151.62 49.57 146.31Q55.97 141 65.96 141Q71.27 141 76.52 142.59Q81.13 148.42 81.13 155.07Q81.13 163.45 74.29 169.67Q67.44 175.87 57.71 175.87Q53.55 175.87 48.88 174.28ZM58.6 146.56Q56.36 150.4 56.36 155.59Q56.36 160.76 58.63 165.15Q60.91 169.54 64.88 171.45Q67.88 167.62 67.88 162.57Q67.88 157.51 65.41 153.17Q62.96 148.81 58.6 146.56ZM125.16 145.4Q125.16 143.68 124.65 142.46L142.9 142.46Q145.2 148.6 146.31 157.51Q147.43 166.4 147.51 174.46L132.71 174.46Q132.27 162.95 128.95 152.26Q123.37 163.14 122.93 174.46L110.38 174.46Q108.71 161.92 103.98 152.2Q100.52 160.32 100.52 167.29Q100.52 171.07 101.41 174.46L85.87 174.46Q85.41 171.84 85.41 167.53Q85.41 163.2 86.7 158.85Q91.24 157.51 95.43 154.43Q99.63 151.35 101.62 147.71Q99.95 144.96 98.09 142.46L118.32 142.46Q120.74 149.06 121.96 156.81Q125.16 150.85 125.16 145.4ZM169.26 166.46Q169.26 170.1 169.59 174.46L155.51 174.46Q152.88 164.29 152.88 152.84Q152.88 147.01 153.59 142.46L188.27 142.46Q190.13 149.7 190.32 159.68Q180.85 163.9 169.26 165.18L169.26 166.46ZM169.32 160.76Q173.41 160.26 176.18 158.71Q175.15 151.93 170.66 146.68Q169.65 153.03 169.32 160.76ZM237.16 173.95L237.16 174.46L222.32 174.46Q222.07 170.82 221.22 166.92Q217.26 170.95 212.27 174.46L197.37 174.46Q196.91 171.84 196.91 167.53Q196.91 163.2 198.19 158.85Q202.8 157.51 207.05 154.31Q211.3 151.1 213.22 147.39Q211.51 144.7 209.58 142.46L230.83 142.46Q237.16 156.23 237.16 173.95ZM220.08 162.25Q218.41 156.54 215.72 151.5Q212.72 160.32 212.27 168.2Q216.88 165.82 220.08 162.25ZM279.73 142.46Q280.12 149.18 280.12 156.64Q280.12 164.09 279.48 174.46L273.32 174.46Q260.91 167.81 250.54 156.35Q251.05 160.64 251.05 165.15Q251.05 169.67 250.74 174.46L243.24 174.46Q244.52 166.59 244.52 159.9Q244.52 153.21 243.88 149.31Q241.32 145.48 239.85 142.46L258.02 142.46Q260.73 147.07 265.35 151.98Q269.99 156.87 274.23 159.62Q274.23 150.28 272.12 142.46L279.73 142.46ZM326.38 143.68Q324.2 144.2 322.74 144.2Q321.27 144.2 319.92 144Q317.94 146.37 316.33 150.34Q314.74 154.31 313.92 157.45Q313.13 160.57 312.17 165.12Q307.31 188.29 302.44 198.01Q299.25 198.98 294.52 199.87Q300.91 188.93 304.88 174.46L291.63 174.46Q286.58 158.07 286.38 142.46L305.06 142.46Q303.72 148.42 303.72 155.1Q303.72 161.79 305.91 170.37Q306.35 168.64 307.44 164.32Q308.53 160 309.03 158.15Q309.55 156.29 310.6 152.9Q311.66 149.51 312.52 147.81Q313.39 146.1 314.67 144Q316.97 140.23 320.75 138.89Q321.85 138.56 325.17 138.21Q328.5 137.85 329.97 136.9Q328.24 140.87 326.38 143.68Z" stroke="#000000" stroke-opacity="1.000000" stroke-width="3.000000"/>
</svg>
